<svg width="64" height="64" viewBox="0 0 64 64" fill="none" xmlns="http://www.w3.org/2000/svg">
  <rect width="64" height="64" rx="15" fill="#1E3A32"/>
  <path d="M17 18.5C17 16.57 18.57 15 20.5 15H31C36.52 15 41 19.03 41 24C41 26.7 39.68 29.12 37.6 30.78C40.83 32.32 43 35.36 43 38.85C43 44.45 38.08 49 32 49H20.5C18.57 49 17 47.43 17 45.5V18.5ZM24 21V28H30.5C32.43 28 34 26.43 34 24.5C34 22.57 32.43 21 30.5 21H24ZM24 34V43H31.5C33.99 43 36 40.99 36 38.5C36 36.01 33.99 34 31.5 34H24Z" fill="#F4CF63"/>
  <path d="M47 16L49 20L53 22L49 24L47 28L45 24L41 22L45 20L47 16Z" fill="#FFF8E1"/>
</svg>
